# xmcd
#
# Track frame offsets: 
#        150
#        16897
#        34290
#        51235
#        69892
#        91240
#        106212
#        123010
#        139535
#        156365
#        172910
#        201022
#
# Disc length: 3587 seconds
#
# Revision: 0
# Processed by: cddbd v1.5.2PL0 Copyright (c) Steve Scherf et al.
# Submitted via: ExactAudioCopy v0.99pb5
#
DISCID=910e010c
DTITLE=Monica - The Makings Of Me
DYEAR=2006
DGENRE=R&B
TTITLE0=Everytime Tha Beat Drop (Feat. Dem Franchize Boyz)
TTITLE1=A Dozen Roses (You Remind Me)
TTITLE2=Sideline Ho
TTITLE3=Why Her
TTITLE4=Hell No (Leave Home) (Feat. Twista)
TTITLE5=Doin' Me Right
TTITLE6=Raw (Feat. Swizz Beatz)
TTITLE7=My Everything
TTITLE8=Gotta Move On
TTITLE9=Getaway
TTITLE10=Thanks For The Misery (Bonus Track)
TTITLE11=Bonus Video
EXTD=
EXTT0=
EXTT1=
EXTT2=
EXTT3=
EXTT4=
EXTT5=
EXTT6=
EXTT7=
EXTT8=
EXTT9=
EXTT10=
EXTT11=
PLAYORDER=
